<svg xmlns="http://www.w3.org/2000/svg" width="128" height="128" viewBox="0 0 128 128" role="img" aria-label="Labrador avatar">
  <rect width="128" height="128" fill="#E9E6DF"/>
  <!-- long floppy ears -->
  <path d="M38 40 C24 44 21 66 28 88 C42 89 46 70 46 52 Z" fill="#8F6B26"/>
  <path d="M90 40 C104 44 107 66 100 88 C86 89 82 70 82 52 Z" fill="#8F6B26"/>
  <!-- shoulders -->
  <path d="M20 128 V119 C20 107 38 99 64 99 C90 99 108 107 108 119 V128 Z" fill="#141317"/>
  <!-- collar and tag -->
  <path d="M48 95 H80 V104 H48 Z" fill="#A87E2F"/>
  <path d="M60.5 107 H67.5 V114 H60.5 Z" fill="#A87E2F"/>
  <!-- head -->
  <path d="M36 56 C36 40 48 30 64 30 C80 30 92 40 92 56 L92 62 C92 82 80 96 64 96 C48 96 36 82 36 62 Z" fill="#A87E2F"/>
  <!-- muzzle -->
  <path d="M46 76 C46 67 54 63 64 63 C74 63 82 67 82 76 C82 87 74 95 64 95 C54 95 46 87 46 76 Z" fill="#C09A4B"/>
  <!-- eyes -->
  <circle cx="51" cy="58" r="5" fill="#141317"/>
  <circle cx="77" cy="58" r="5" fill="#141317"/>
  <!-- nose -->
  <path d="M56 72 H72 V77 C72 81.5 68.4 84.5 64 84.5 C59.6 84.5 56 81.5 56 77 Z" fill="#141317"/>
  <!-- mouth -->
  <path d="M64 84.5 V88" fill="none" stroke="#7A5A1F" stroke-width="2.2" stroke-linecap="round"/>
  <path d="M56.5 88 C58.5 91.5 61.5 91.5 64 88 C66.5 91.5 69.5 91.5 71.5 88" fill="none" stroke="#7A5A1F" stroke-width="2.2" stroke-linecap="round"/>
  <rect x=".5" y=".5" width="127" height="127" fill="none" stroke="#D9D6D3"/>
</svg>
